<svg width="375" height="376" viewBox="0 0 375 376" fill="none" xmlns="http://www.w3.org/2000/svg">
<path d="M7.55704 211.168C3.3834 207.551 2.93214 201.235 6.54912 197.061L170.472 7.91079C174.206 3.60154 180.782 3.28255 184.916 7.21014L344.644 158.962C348.281 162.417 348.795 168.033 345.845 172.091L204.078 367.115C200.633 371.855 193.869 372.63 189.44 368.792L7.55704 211.168Z" fill="#D9D9D9"/>
<path d="M229.855 109.081C230.322 106.604 230.555 105.365 231.375 104.909C231.555 104.809 231.75 104.737 231.953 104.696C232.873 104.511 233.854 105.303 235.815 106.886L257.768 124.602C258.541 125.226 258.928 125.539 259.124 125.964C259.17 126.063 259.207 126.165 259.236 126.269C259.36 126.721 259.266 127.209 259.076 128.185L231.581 270.004C231.326 271.317 231.199 271.973 230.776 272.403C230.679 272.502 230.572 272.59 230.457 272.666C229.954 273 229.286 273 227.948 273H203.461C201.573 273 200.628 273 200.053 272.468C199.924 272.348 199.811 272.212 199.718 272.063C199.301 271.4 199.476 270.472 199.825 268.616L229.855 109.081Z" fill="#111111"/>
<path d="M188.381 61.2869C188.661 59.8006 190.426 59.1506 191.603 60.1005L216.564 80.2443C217.14 80.7093 217.412 81.4545 217.271 82.1813L189.314 226.381C189.132 227.321 188.308 228 187.351 228H159.412C158.159 228 157.214 226.861 157.446 225.63L188.381 61.2869Z" fill="#111111"/>
<path d="M133.381 106.287C133.661 104.801 135.426 104.151 136.603 105.101L161.564 125.244C162.14 125.709 162.412 126.454 162.271 127.181L134.314 271.381C134.132 272.321 133.308 273 132.351 273H104.412C103.159 273 102.214 271.861 102.446 270.63L133.381 106.287Z" fill="#111111"/>
</svg>
